<?xml version="1.0" standalone="no"?>
<!DOCTYPE svg PUBLIC "-//W3C//DTD SVG 20010904//EN"
 "http://www.w3.org/TR/2001/REC-SVG-20010904/DTD/svg10.dtd">
<svg version="1.0" xmlns="http://www.w3.org/2000/svg"
 width="413.000000pt" height="413.000000pt" viewBox="0 0 413.000000 413.000000"
 preserveAspectRatio="xMidYMid meet">
<metadata>
Created by potrace 1.14, written by Peter Selinger 2001-2017
</metadata>
<g transform="translate(0.000000,413.000000) scale(0.100000,-0.100000)"
fill="#000000" stroke="none">
<path d="M1125 3822 c-23 -3 -57 -31 -145 -122 -212 -217 -325 -340 -331 -363
-3 -12 -5 -749 -5 -1637 1 -1191 4 -1614 13 -1613 11 2 242 231 381 377 l72
76 0 1392 c0 953 3 1395 11 1403 16 16 391 13 423 -5 14 -7 45 -39 68 -69 23
-31 44 -58 47 -61 7 -6 44 -53 132 -170 35 -47 66 -87 69 -90 3 -3 21 -25 40
-50 19 -25 37 -47 40 -50 3 -3 16 -22 30 -42 14 -21 28 -38 33 -38 4 0 7 -5 7
-11 0 -7 8 -19 18 -28 9 -9 37 -43 62 -76 25 -33 48 -61 53 -63 4 -2 7 -9 7
-16 0 -6 9 -18 20 -26 11 -8 20 -18 20 -23 0 -5 6 -14 13 -21 6 -7 23 -27 37
-45 87 -114 106 -137 117 -149 7 -7 13 -16 13 -20 0 -14 78 -94 83 -86 2 5 4
260 3 567 -1 307 1 562 4 567 3 5 97 10 208 12 170 2 205 0 212 -12 6 -9 10
-377 10 -922 0 -887 0 -908 -19 -918 -12 -6 -97 -10 -206 -10 -212 0 -222 3
-271 76 -16 24 -32 44 -36 44 -5 0 -8 4 -8 10 0 9 -7 19 -53 73 -11 12 -58 74
-105 137 -48 63 -89 117 -92 120 -6 5 -96 121 -140 180 -24 32 -107 139 -309
399 -52 67 -98 121 -102 121 -5 0 -9 -12 -9 -27 -1 -16 -1 -376 -2 -801 l-1
-773 22 -22 22 -22 627 0 c484 1 635 4 664 14 38 13 93 61 160 142 21 24 47
55 59 69 11 14 35 42 52 63 18 22 40 49 50 60 11 12 33 39 50 60 18 22 40 48
50 60 17 20 17 81 15 1170 l-3 1149 -24 19 c-22 18 -53 19 -915 20 -490 1
-963 2 -1051 3 -88 0 -173 -1 -190 -2z"/>
</g>
</svg>
